<svg width="14" height="14" viewBox="0 0 14 14" fill="none" xmlns="http://www.w3.org/2000/svg">
<path d="M9.40625 3.9375C9.40625 3.57383 9.69883 3.28125 10.0625 3.28125C10.4262 3.28125 10.7188 3.57383 10.7188 3.9375C10.7188 4.30117 10.4262 4.59375 10.0625 4.59375C9.69883 4.59375 9.40625 4.30117 9.40625 3.9375ZM9.1875 9.625C8.92773 9.625 8.67344 9.60586 8.42461 9.56484L7.65898 10.284C7.56055 10.4316 7.39375 10.5 7.21875 10.5H6.125V11.5938C6.125 11.9574 5.83242 12.25 5.46875 12.25H4.375V13.3438C4.375 13.7074 4.08242 14 3.71875 14H0.65625C0.293945 14 0 13.7074 0 13.3438V10.7188C0 10.5437 0.0691523 10.377 0.192199 10.2539L4.50898 5.93906C4.42148 5.55352 4.375 5.20078 4.375 4.8125C4.375 2.15469 6.52969 0 9.1875 0C11.8453 0 14 2.15469 14 4.8125C14 7.47031 11.8453 9.625 9.1875 9.625ZM9.1875 8.75C11.3613 8.75 13.125 6.98633 13.125 4.8125C13.125 2.63785 11.3613 0.875 9.1875 0.875C7.01367 0.875 5.25 2.63785 5.25 4.8125C5.25 5.13242 5.28828 5.4168 5.33477 5.73398L5.47148 6.2125L0.875 10.809V13.125H3.5V11.375H5.25V9.625H7.12852L8.12109 8.62969L8.56406 8.70078C8.76641 8.73359 8.97422 8.75 9.1875 8.75Z" fill="black"/>
</svg>
